<svg width="24" height="24" viewBox="0 0 24 24" fill="none" xmlns="http://www.w3.org/2000/svg">
<path d="M9.98083 3.13043C13.6547 3.13043 16.9672 5.62022 16.9672 8.9545V13.3604C16.9672 13.9836 17.1559 14.5922 17.5112 15.1105L19.7069 18.3118C19.8594 18.5337 19.947 18.7916 19.9604 19.0581C19.9738 19.3246 19.9125 19.5897 19.783 19.8249C19.6536 20.0602 19.4609 20.2568 19.2254 20.3938C18.99 20.5308 18.7207 20.6029 18.4463 20.6026H13.474C13.474 21.0488 13.3837 21.4906 13.2081 21.9027C13.0326 22.3149 12.7753 22.6895 12.4509 23.0049C12.1265 23.3204 11.7414 23.5707 11.3176 23.7414C10.8938 23.9121 10.4396 24 9.98083 24C9.5221 24 9.06785 23.9121 8.64404 23.7414C8.22023 23.5707 7.83514 23.3204 7.51076 23.0049C7.18639 22.6895 6.92908 22.3149 6.75353 21.9027C6.57798 21.4906 6.48763 21.0488 6.48763 20.6026H1.51631C1.24208 20.6028 0.972937 20.5307 0.737574 20.3938C0.50221 20.257 0.309453 20.0605 0.179859 19.8255C0.0502645 19.5904 -0.0113079 19.3256 0.00170783 19.0592C0.0147236 18.7928 0.101839 18.5348 0.253765 18.3128L2.44949 15.1105C2.80481 14.5923 2.99443 13.9833 2.99443 13.3604V8.9545C2.99443 5.62022 6.30598 3.13043 9.98083 3.13043ZM4.49151 8.9545V13.3604C4.49177 14.2707 4.215 15.1606 3.69606 15.9181L1.50034 19.1194L1.49734 19.1291L1.49834 19.1359L1.50233 19.1418L1.50832 19.1456L1.51531 19.1466H18.4463L18.4533 19.1456L18.4593 19.1418L18.4633 19.1359L18.4643 19.1301L18.4613 19.1204L16.2666 15.9181C15.7473 15.1607 15.4702 14.2708 15.4701 13.3604V8.9545C15.4701 6.65982 13.0918 4.58645 9.98083 4.58645C6.86989 4.58645 4.49151 6.65982 4.49151 8.9545ZM11.9769 20.6026H7.98471C7.98471 21.1175 8.19502 21.6113 8.56936 21.9754C8.94371 22.3394 9.45143 22.544 9.98083 22.544C10.5102 22.544 11.018 22.3394 11.3923 21.9754C11.7666 21.6113 11.9769 21.1175 11.9769 20.6026Z" fill="#929191"/>
<ellipse cx="17.966" cy="6.26087" rx="5.98866" ry="6.26087" fill="#FF7F50"/>
<path d="M17.6013 9.024C17.5267 9.024 17.4893 8.98933 17.4893 8.92V4.184L16.8973 4.696C16.8707 4.71733 16.8387 4.73067 16.8013 4.736C16.7693 4.74133 16.7427 4.73333 16.7213 4.712L16.3613 4.28C16.3453 4.25867 16.3373 4.23467 16.3373 4.208C16.3427 4.176 16.3587 4.14667 16.3853 4.12L17.6093 2.992C17.62 2.98133 17.6387 2.97067 17.6653 2.96C17.692 2.94933 17.7133 2.944 17.7293 2.944H18.1533C18.244 2.944 18.2973 2.95467 18.3133 2.976C18.3347 2.992 18.3453 3.05333 18.3453 3.16V8.92C18.3453 8.98933 18.3107 9.024 18.2413 9.024H17.6013Z" fill="white"/>
</svg>
